<?xml version="1.0" encoding="UTF-8" standalone="no"?>
<!-- Created with Inkscape (http://www.inkscape.org/) -->

<svg
   version="1.1"
   id="svg1"
   width="201.39668"
   height="318.73419"
   viewBox="0 0 201.39668 318.73419"
   xmlns="http://www.w3.org/2000/svg"
   xmlns:svg="http://www.w3.org/2000/svg">
  <defs
     id="defs1" />
  <g
     id="g1"
     transform="translate(-137.90871,-110.75193)">
    <path
       style="fill:#000000"
       d="m 220.77391,428.27447 c -6.81999,-2.15132 -8.23593,-3.30415 -9.40902,-7.66067 -0.61146,-2.27077 -2.0327,-5.37435 -3.15833,-6.89684 -1.98924,-2.69059 -2.01081,-3.18394 -0.76973,-17.60431 1.42043,-16.50419 0.39161,-36.09024 -2.56553,-48.84119 -1.94389,-8.3819 -1.4512,-11.43131 2.9078,-17.9971 3.60157,-5.42492 6.37057,-12.09023 5.4183,-13.04249 -0.32719,-0.32719 -2.38278,0.31722 -4.56797,1.43202 -2.1852,1.1148 -4.25846,1.74155 -4.60724,1.39276 -0.34879,-0.34878 -1.2902,0.233 -2.09202,1.29285 -0.82586,1.09162 -1.47165,1.3851 -1.48967,0.677 -0.0591,-2.32215 -1.97019,-1.27015 -3.6333,2 -2.18257,4.29157 -2.1044,4.23897 -3.98255,2.68024 -1.39939,-1.16139 -1.83666,-1.07538 -3.06365,0.60263 -1.22951,1.68146 -1.56451,1.74662 -2.37647,0.46225 -0.51986,-0.82232 -0.95899,-2.17012 -0.97583,-2.99512 -0.058,-2.84236 -1.96797,1.24757 -1.98469,4.25 -0.0183,3.28784 -1.60004,3.63376 -2.57464,0.56305 -0.6351,-2.00101 -0.79899,-2.04352 -1.92763,-0.5 -1.75656,2.40223 -2.50261,2.09522 -2.58333,-1.06305 -0.0386,-1.5125 -0.41305,-3.62591 -0.83199,-4.69645 -0.7062,-1.8046 -0.80805,-1.76925 -1.39757,0.48508 -0.59933,2.29184 -0.7124,2.32687 -1.96799,0.60975 -1.25021,-1.70976 -1.4171,-1.64735 -2.71399,1.01491 l -1.38187,2.83671 -0.99451,-3.75 c -0.98662,-3.72022 -2.64179,-5.12992 -2.64179,-2.25 0,0.825 -0.45,1.5 -1,1.5 -0.55,0 -1,-2.09475 -1,-4.65499 0,-4.59165 -0.0272,-4.63036 -2,-2.84501 -1.94035,1.75598 -2,1.74663 -2,-0.31363 0,-1.34963 -0.48178,-1.93873 -1.32188,-1.61635 -0.76324,0.29288 -1.83559,-0.62022 -2.53744,-2.16061 -0.66856,-1.46733 -1.46121,-2.42221 -1.76146,-2.12197 -1.25106,1.25106 -3.91457,-2.91264 -3.54227,-5.53744 0.2251,-1.58707 -0.0808,-2.75 -0.72345,-2.75 -0.61243,0 -1.1135,-0.70156 -1.1135,-1.55902 0,-0.92502 -0.47014,-1.26846 -1.15607,-0.84453 -0.83123,0.51373 -0.98931,-0.31314 -0.5626,-2.94266 0.54888,-3.38237 0.4479,-3.57925 -1.34393,-2.62029 -2.39409,1.28127 -2.43683,0.65836 -0.19011,-2.77057 1.9197,-2.92983 2.25624,-2.87321 -3.44581,-0.57977 -1.4495,0.58301 -1.40023,0.25313 0.33603,-2.25 3.48118,-5.01872 3.54586,-5.29116 1.11387,-4.69175 l -2.25138,0.55489 2.42431,-2.64815 2.42432,-2.64815 h -2.34863 -2.34863 l 2.42431,-2.64103 2.42432,-2.64102 -2.75,0.66007 c -3.32786,0.79878 -3.57844,-0.55619 -0.5,-2.7036 2.08481,-1.45429 2.10749,-1.57337 0.30887,-1.62197 -1.92151,-0.0519 -1.92151,-0.0673 0,-1.52065 1.82913,-1.38349 1.73919,-1.47361 -1.55887,-1.56204 l -3.5,-0.0938 4.25,-2.13498 c 4.6011,-2.31136 5.22974,-3.33267 2.5,-4.06163 -1.48206,-0.39578 -1.40551,-0.57797 0.5,-1.18996 1.2375,-0.39744 2.25,-1.34514 2.25,-2.106 0,-0.76085 0.675,-1.38336 1.5,-1.38336 2.29967,0 1.78107,-1.68333 -0.75,-2.43443 l -2.25,-0.6677 2.46337,-0.99564 c 3.34908,-1.35364 3.51316,-1.62313 2.05668,-3.37807 -1.06897,-1.28804 -0.91955,-1.52416 0.96449,-1.52416 1.57088,0 2.05941,-0.44309 1.65383,-1.5 -0.35062,-0.91372 -0.002,-1.5 0.89301,-1.5 1.79158,0 1.94505,-1.64109 0.21862,-2.33772 -0.6875,-0.27742 -0.0266,-0.53992 1.46861,-0.58334 1.82302,-0.0529 2.55153,-0.51437 2.21142,-1.40069 -0.30128,-0.78513 0.92944,-2.09544 3.03138,-3.22741 1.94622,-1.04811 3.53859,-2.25332 3.53859,-2.67825 0,-0.42493 0.84751,-0.77259 1.88337,-0.77259 1.04236,0 2.11691,-0.89309 2.40638,-2 0.3587,-1.37168 1.36401,-2 3.19996,-2 1.68685,0 2.52395,-0.45903 2.26326,-1.24108 -0.47412,-1.42238 0.95522,-3.071 3.49703,-4.03349 0.9625,-0.36447 1.75,-1.12679 1.75,-1.69405 0,-0.56726 0.9,-1.03138 2,-1.03138 1.1,0 2,-0.45 2,-1 0,-0.55 -0.45,-1 -1,-1 -0.55,0 -1,-0.45 -1,-1 0,-0.55 1.84814,-1 4.10699,-1 3.38203,0 3.9968,-0.28715 3.48274,-1.62675 -0.34333,-0.89471 -0.11137,-2.24471 0.51546,-3 0.62683,-0.75529 0.7471,-1.37603 0.26725,-1.37942 -0.47984,-0.003 0.31475,-0.6256 1.76577,-1.38269 1.45101,-0.7571 3.86352,-1.14231 5.36113,-0.85602 2.46222,0.47068 2.65346,0.30168 1.99747,-1.76517 -0.67333,-2.12146 -0.50169,-2.24093 2.38887,-1.66282 1.71288,0.34258 3.11783,0.29662 3.12212,-0.10213 0.0166,-1.54596 5.23316,-3.16641 7.05481,-2.19149 2.56888,1.37482 2.93739,1.23174 2.93739,-1.1405 0,-2.12346 0.0117,-2.12388 4.8008,-0.1706 0.97849,0.39909 1.12322,-0.18216 0.58412,-2.34593 -0.66269,-2.65985 -0.58392,-2.76707 1.04598,-1.42372 1.55594,1.28239 1.87484,1.25229 2.71926,-0.25661 0.74884,-1.33811 1.37942,-1.4831 2.90323,-0.66758 1.38172,0.73947 1.94661,0.72184 1.94661,-0.0608 0,-0.67334 0.83749,-0.83676 2.15127,-0.41978 1.71046,0.54288 2.02425,0.35178 1.53139,-0.93261 -0.77439,-2.01801 1.14447,-2.06073 3.75837,-0.0837 1.48175,1.12074 2.11799,1.18178 2.68895,0.25796 0.5585,-0.90367 1.22654,-0.77702 2.63771,0.50007 2.33114,2.10965 3.35464,2.1926 2.59393,0.21024 -0.73924,-1.92646 0.10457,-1.89588 3.17356,0.11501 1.51375,0.99184 2.46482,1.18477 2.46482,0.5 0,-1.68753 1.42962,-1.34551 4.09699,0.98016 l 2.40301,2.09518 0.31642,-2.59518 c 0.378,-3.10021 1.71005,-3.34848 3.18446,-0.59352 1.40334,2.62216 8.07331,5.49634 9.05794,3.90318 0.48325,-0.78193 1.37153,-0.47449 2.82314,0.97713 1.16492,1.16492 2.59498,2.11804 3.1779,2.11804 0.58292,0 3.39542,2.1763 6.25,4.83624 4.86171,4.53021 13.84626,11.16376 15.12031,11.16376 1.31036,0 0.21651,-2.92986 -6.47173,-17.33446 -5.37541,-11.57711 -8.24423,-16.46694 -12.12431,-20.66554 -2.79551,-3.025 -6.25575,-7.075 -7.68943,-9 -1.43367,-1.925 -3.62773,-4.49102 -4.87569,-5.70226 -1.24796,-1.21123 -2.26901,-3.15029 -2.26901,-4.30901 0,-1.23408 -0.44065,-1.83443 -1.06378,-1.44932 -0.72088,0.44553 -0.84544,-0.5064 -0.38642,-2.95318 0.5779,-3.08046 0.43769,-3.51866 -0.95487,-2.98429 -1.39947,0.53703 -1.48697,0.24429 -0.61358,-2.0529 1.31845,-3.46777 1.29768,-3.59335 -0.48135,-2.91067 -1.82239,0.69932 -1.96346,-0.74711 -0.25,-2.56337 1.00091,-1.06097 0.99259,-1.41911 -0.0417,-1.79725 -1.00303,-0.3667 -1.02706,-0.79117 -0.1075,-1.89917 0.65133,-0.7848 0.89902,-1.71214 0.55042,-2.06074 -0.34861,-0.3486 -0.10417,-1.27203 0.54319,-2.05205 0.91544,-1.10304 0.86185,-1.61301 -0.24111,-2.29468 -1.14538,-0.70788 -0.85661,-1.46256 1.50139,-3.92378 1.73205,-1.80787 2.36579,-3.04733 1.55813,-3.04733 -0.91275,0 -0.64183,-0.76596 0.82205,-2.32419 1.2009,-1.2783 1.9158,-2.59185 1.58867,-2.91898 -0.32714,-0.32714 0.32699,-1.08812 1.45361,-1.69107 1.13892,-0.60953 1.81162,-1.71334 1.5151,-2.48607 -0.359,-0.93552 0.4934,-1.6153 2.60779,-2.07969 2.13279,-0.46844 2.96803,-1.14093 2.60194,-2.09496 -0.37334,-0.97289 0.22011,-1.40504 1.92944,-1.40504 1.35774,0 2.46862,-0.48033 2.46862,-1.06739 0,-0.61319 0.85315,-0.79661 2.00492,-0.43105 1.28979,0.40936 2.20333,0.11931 2.56116,-0.81317 0.31465,-0.81996 1.94121,-1.48336 3.74507,-1.52745 1.75387,-0.0429 5.16401,-0.12396 7.57809,-0.1802 2.41408,-0.0562 4.83372,0.34222 5.37697,0.88547 0.6155,0.6155 1.88203,0.64773 3.36076,0.0855 1.49195,-0.56724 2.37303,-0.54012 2.37303,0.073 0,0.53638 1.17314,0.97525 2.60699,0.97525 1.94784,0 2.45606,0.39329 2.01007,1.55553 -0.415,1.08148 0.26383,1.85558 2.22747,2.54011 2.6213,0.91379 10.89313,10.70818 14.27654,16.90436 0.95938,1.75694 1.30559,5.75744 1.16482,13.45963 l -0.20031,10.95963 5.82954,6.07086 c 6.14213,6.39639 8.54736,11.92757 5.94177,13.66397 -0.7617,0.5076 -6.88042,0.61966 -13.94915,0.25547 -12.85782,-0.66246 -14.9476,-0.29699 -19.12556,3.3448 -2.28499,1.99175 -1.36611,3.64786 7.6266,13.74564 11.42326,12.82699 14.73919,17.3413 16.12836,21.95716 0.71804,2.38584 2.04848,5.77462 2.95654,7.53062 0.90807,1.756 1.42863,3.77228 1.15682,4.48062 -0.27182,0.70834 0.0106,1.79272 0.62764,2.40974 0.82914,0.82914 0.79117,1.12186 -0.14553,1.12186 -0.81231,0 -1.03946,0.71813 -0.63261,2 0.39199,1.23506 0.1797,2 -0.55506,2 -0.81812,0 -0.87767,0.3905 -0.1906,1.25 0.54958,0.6875 0.77981,2.825 0.51161,4.75 -0.2682,1.925 -0.55025,6.0875 -0.62679,9.25 -0.0765,3.1625 -0.52915,5.75 -1.00579,5.75 -0.47665,0 -0.63128,0.9 -0.34362,2 0.31421,1.20153 0.0307,2 -0.71018,2 -0.80139,0 -1.07901,1.05044 -0.79288,3 0.2643,1.80081 -0.005,3 -0.67319,3 -0.61243,0 -1.1135,0.66087 -1.1135,1.46861 0,0.88924 -0.58694,1.24338 -1.4878,0.8977 -0.97986,-0.37601 -2.08941,0.55009 -3.25,2.71266 -2.30002,4.28573 -6.30734,8.11768 -7.86435,7.5202 -0.67778,-0.26009 -1.50517,0.2381 -1.83863,1.1071 -0.33346,0.86899 -0.86139,1.32489 -1.17317,1.01311 -0.31178,-0.31178 -2.27855,0.0371 -4.37061,0.77517 -3.25542,1.14858 -4.1073,1.12941 -5.90959,-0.13296 -1.21534,-0.85126 -2.10585,-1.02815 -2.10585,-0.4183 0,2.09642 -1.85308,0.99748 -2.72405,-1.61545 -0.87812,-2.63435 -0.93601,-2.5919 -4.09189,3 -1.76064,3.11969 -3.67387,5.67216 -4.25163,5.67216 -0.57776,0 -0.80455,0.39789 -0.504,0.8842 0.57059,0.92324 -7.74061,9.1158 -9.2478,9.1158 -0.47523,0 -1.37181,1.6875 -1.9924,3.75 -0.6206,2.0625 -3.45553,7.8 -6.29987,12.75 -2.84433,4.95 -5.84585,10.97337 -6.67003,13.38527 -1.51716,4.43981 -1.4576,5.49523 1.40636,24.92257 0.63802,4.32797 15.35975,33.70851 19.81483,39.54498 1.9055,2.49634 4.39191,6.3566 5.52537,8.57836 2.784,5.45709 5.75445,7.15983 14.08583,8.07438 3.87632,0.42552 7.81317,1.44144 8.74856,2.25762 0.9354,0.81618 3.3601,2.01647 5.38824,2.66732 4.77777,1.53323 8.81248,4.73967 8.81248,7.0034 0,1.31457 -0.59646,1.67581 -2.25,1.36271 -1.2375,-0.23433 -3.27676,-0.0442 -4.5317,0.42246 -1.25493,0.46669 -5.01656,0.58704 -8.35918,0.26746 -4.4767,-0.42802 -6.20802,-0.24088 -6.57309,0.71046 -0.27258,0.71033 -1.00566,0.97629 -1.62906,0.591 -0.62341,-0.38529 -4.28876,-0.74107 -8.14522,-0.79064 -8.24817,-0.10601 -11.17537,-1.44804 -13.07501,-5.99451 -0.76667,-1.8349 -2.86607,-4.3645 -4.66534,-5.62133 -4.19941,-2.93339 -4.4991,-3.41647 -5.76203,-9.28795 -2.72853,-12.68517 -15.08285,-37.95691 -24.4064,-49.92527 -5.87939,-7.54719 -6.46994,-10.89348 -3.75156,-21.25804 1.18172,-4.50565 2.14859,-11.21497 2.14859,-14.90958 v -6.71749 l -2.75,0.6734 c -3.85005,0.94276 -11.53337,8.76998 -14.62192,14.89577 -1.77915,3.52874 -2.71379,7.21449 -2.97187,11.7196 -0.23528,4.10684 -1.42012,9.17062 -3.15879,13.5 -2.65711,6.61631 -2.7835,7.69299 -2.809,23.92805 -0.0242,15.43529 0.19597,17.64122 2.39244,23.96671 2.93561,8.45407 5.17645,10.04201 17.11105,12.12552 6.89153,1.2031 8.79845,1.97059 11.61217,4.67363 2.82503,2.71391 6.19592,7.6163 6.19592,9.01092 0,1.03839 -16.20448,-0.24236 -20.9315,-1.65436 -2.98733,-0.89233 -6.60947,-1.62242 -8.0492,-1.62242 -2.40282,0 -2.58416,0.2873 -2.20909,3.5 0.45032,3.85733 0.44991,3.85748 -5.445,1.99797 z"
       id="path1" />
  </g>
</svg>
