<?xml version="1.0" standalone="no"?>
<!DOCTYPE svg PUBLIC "-//W3C//DTD SVG 20010904//EN"
 "http://www.w3.org/TR/2001/REC-SVG-20010904/DTD/svg10.dtd">
<svg version="1.0" xmlns="http://www.w3.org/2000/svg"
 width="1024.000000pt" height="1024.000000pt" viewBox="0 0 1024.000000 1024.000000"
 preserveAspectRatio="xMidYMid meet">
<metadata>
Created by potrace 1.16, written by Peter Selinger 2001-2019
</metadata>
<g transform="translate(0.000000,1024.000000) scale(0.100000,-0.100000)"
fill="#000000" stroke="none">
<path d="M4780 9561 c4 -16 26 -67 48 -114 l40 -85 -55 39 c-69 48 -180 95
-273 114 -90 19 -240 20 -240 2 0 -7 31 -44 70 -82 38 -38 68 -70 66 -72 -1
-2 -23 4 -47 13 -88 32 -156 45 -275 51 -124 6 -194 0 -194 -18 0 -14 79 -98
125 -132 l40 -29 -38 6 c-93 17 -264 25 -335 16 -101 -13 -192 -39 -192 -56 0
-7 31 -28 69 -46 39 -18 70 -36 70 -40 1 -5 -14 -8 -33 -8 -46 0 -182 -40
-324 -96 -64 -25 -165 -62 -224 -82 -60 -21 -106 -41 -105 -47 5 -15 108 -65
135 -65 40 0 23 -14 -76 -63 -53 -26 -164 -90 -246 -142 -82 -52 -153 -95
-158 -95 -4 0 -8 -4 -8 -10 0 -16 51 -37 109 -45 l53 -7 -73 -40 c-106 -58
-240 -150 -236 -162 2 -6 22 -15 44 -20 l41 -9 -39 -27 c-58 -39 -258 -204
-259 -213 0 -16 70 -37 124 -37 l55 0 -126 -161 c-70 -89 -158 -190 -197 -225
-38 -35 -66 -67 -62 -71 16 -16 164 -16 211 0 49 17 49 19 5 -48 -14 -22 -52
-78 -83 -126 -52 -78 -146 -180 -207 -223 -24 -16 -24 -17 -6 -31 26 -20 97
-29 168 -21 l60 6 -42 -50 c-48 -58 -80 -86 -144 -126 -25 -16 -46 -32 -46
-36 0 -13 44 -31 111 -48 l67 -15 -54 -40 c-29 -22 -53 -43 -54 -47 0 -12 69
-20 115 -14 25 4 45 4 45 0 0 -13 -91 -156 -147 -231 -30 -40 -77 -91 -104
-114 -42 -35 -48 -44 -37 -55 22 -22 137 -47 187 -40 l45 6 -34 -35 c-40 -41
-95 -74 -168 -100 -29 -11 -52 -22 -52 -25 0 -13 66 -69 93 -79 16 -6 55 -11
88 -11 l60 0 -76 -90 c-42 -49 -74 -94 -71 -99 17 -26 195 -41 263 -22 l31 9
-5 -91 c-4 -78 -2 -100 16 -147 36 -93 33 -93 103 -22 35 34 66 62 70 62 4 0
10 -15 13 -32 12 -57 57 -128 113 -179 29 -27 58 -49 63 -49 5 0 9 11 9 25 0
14 2 25 4 25 3 0 25 -21 49 -47 l45 -47 7 42 7 42 72 -67 c40 -38 92 -78 115
-91 l41 -23 1 43 0 43 16 -25 c33 -51 136 -139 203 -174 37 -20 71 -36 74 -36
9 0 7 51 -4 89 -5 19 -8 36 -6 38 1 2 16 -9 32 -23 47 -42 166 -95 229 -101
57 -6 58 -6 53 18 -3 13 -9 32 -13 42 -7 18 -5 17 33 -2 23 -12 48 -21 57 -21
26 0 17 -18 -30 -57 -51 -42 -47 -49 33 -59 57 -7 159 9 204 32 16 8 28 10 28
5 0 -12 -59 -74 -85 -89 -17 -10 -18 -13 -5 -22 38 -25 221 -1 278 36 13 9 26
14 28 12 9 -10 -51 -54 -94 -69 -31 -10 -48 -22 -50 -35 -7 -43 -10 -44 -61
-19 -44 22 -129 45 -167 45 -9 0 -14 -12 -14 -33 l0 -34 -47 23 c-66 33 -150
48 -217 40 -61 -8 -67 -17 -46 -71 9 -24 8 -26 -7 -20 -53 21 -157 28 -241 16
-119 -17 -202 -42 -202 -61 0 -19 47 -90 60 -90 6 0 10 -4 10 -9 0 -5 -18 -11
-40 -15 -53 -8 -175 -65 -247 -114 -86 -60 -167 -145 -159 -169 9 -29 75 -92
120 -115 l39 -20 -29 -19 c-39 -27 -141 -79 -182 -93 l-33 -12 30 -59 c46 -91
165 -195 223 -195 55 0 7 -45 -84 -78 -27 -9 -48 -20 -48 -23 0 -11 87 -78
146 -114 31 -19 82 -39 113 -45 31 -6 69 -13 84 -16 l29 -6 -22 -23 c-24 -25
-21 -55 4 -55 8 0 18 -4 21 -10 4 -6 -6 -10 -24 -10 -23 0 -41 12 -78 51 l-48
51 -91 -7 -91 -7 -27 33 c-15 18 -48 73 -73 123 -86 171 -183 298 -241 313
-36 9 -94 -13 -168 -62 -37 -25 -70 -45 -74 -45 -16 0 -64 208 -75 325 -13
141 28 366 88 480 39 73 131 171 171 181 39 9 90 -18 199 -106 81 -66 135
-100 157 -100 19 0 10 74 -15 129 -64 138 -192 248 -315 271 -102 19 -248 -36
-358 -135 -70 -64 -175 -215 -226 -326 -73 -159 -138 -394 -178 -639 -19 -117
-22 -174 -23 -425 0 -324 5 -368 66 -605 98 -380 271 -698 548 -1007 446 -497
1190 -850 2086 -988 310 -47 435 -57 821 -62 486 -7 754 11 1094 72 711 128
1248 346 1717 693 144 108 371 328 475 462 169 219 312 500 387 761 91 313
114 785 56 1124 -83 489 -271 826 -535 960 -72 37 -179 46 -245 20 -60 -22
-155 -118 -188 -190 -26 -53 -36 -125 -19 -125 5 0 29 14 53 31 133 92 150
102 191 106 40 4 46 2 85 -39 86 -89 153 -240 183 -415 13 -75 9 -313 -7 -366
l-8 -27 -50 41 c-62 52 -115 79 -185 95 -38 9 -58 10 -67 3 -7 -6 -42 -71 -77
-143 l-65 -133 -58 -12 c-32 -7 -66 -17 -76 -23 -13 -7 -26 -1 -55 21 -21 17
-55 33 -79 37 -50 8 -54 18 -15 38 40 20 152 105 152 114 0 4 -20 13 -45 20
-48 13 -57 27 -25 37 33 10 98 94 120 154 13 33 24 92 27 143 6 84 1 101 -23
79 -5 -5 -25 -14 -45 -19 l-37 -10 14 52 c31 116 11 233 -56 331 l-33 48 -26
-54 -26 -54 -8 75 c-17 159 -129 298 -263 323 -29 5 -32 3 -51 -44 l-21 -49
63 -30 c160 -76 208 -242 120 -414 -19 -38 -34 -71 -32 -72 1 -2 21 6 44 16
56 25 130 94 145 136 6 19 15 34 20 34 4 0 15 -26 24 -57 22 -74 14 -147 -22
-214 -36 -66 -82 -103 -166 -135 -38 -14 -66 -29 -63 -34 9 -15 107 -32 160
-28 29 2 76 16 105 30 l52 26 -7 -27 c-11 -44 -48 -90 -99 -123 -39 -26 -63
-33 -119 -37 l-71 -6 40 -27 c21 -15 62 -37 89 -49 l50 -23 -55 -17 c-30 -10
-69 -18 -86 -18 -41 -1 -116 25 -143 50 -52 49 -27 -28 27 -84 35 -36 35 -37
12 -37 -70 0 -216 104 -269 191 -18 29 -21 31 -27 14 -7 -17 6 -98 22 -139 7
-17 5 -17 -24 -2 -64 33 -123 127 -91 146 24 15 -50 120 -111 157 l-52 32 30
15 c16 8 53 41 81 73 l51 58 -22 17 c-51 38 -149 80 -216 91 -63 11 -107 27
-73 27 15 0 111 68 111 78 -1 10 -109 86 -160 112 -25 13 -67 29 -95 36 l-50
12 40 17 c22 10 71 22 108 27 38 6 65 14 60 19 -5 5 -40 16 -78 26 l-69 17 49
22 c62 29 175 48 234 40 61 -8 137 -47 191 -96 24 -22 45 -40 47 -40 8 0 2 40
-12 81 -9 25 -32 62 -52 83 -95 98 -194 105 -398 29 -22 -8 -52 -26 -67 -40
-20 -19 -31 -23 -40 -16 -7 6 -40 17 -73 24 -58 13 -58 14 -22 17 42 4 48 22
15 45 -22 14 -19 15 39 10 73 -7 182 13 190 34 3 8 -8 26 -28 42 l-33 28 64 6
c35 4 93 12 128 18 l64 11 -27 28 -27 28 43 -10 c74 -17 259 7 259 33 0 4 -7
12 -16 20 -8 7 -22 25 -30 41 l-15 29 28 -8 c58 -16 175 -8 227 15 l49 22 -25
28 c-47 50 -65 102 -29 82 36 -19 188 -9 219 15 1 1 -9 24 -23 50 -27 52 -30
91 -11 144 l12 34 18 -67 19 -68 49 49 c55 54 92 122 109 203 l12 55 17 -77
c19 -89 23 -96 46 -78 58 49 111 178 121 297 6 68 7 73 19 52 7 -13 18 -50 25
-82 7 -31 18 -56 23 -54 5 2 25 25 43 51 62 91 88 226 62 335 -5 24 -8 46 -5
48 3 3 24 -22 48 -56 24 -33 46 -61 50 -61 12 0 28 64 28 115 0 65 -21 125
-60 175 l-30 37 48 7 c62 8 144 49 177 88 14 16 25 33 25 37 0 4 -30 17 -66
29 -60 19 -289 141 -281 149 2 2 30 8 63 14 62 12 134 43 134 59 0 5 -23 21
-50 35 -101 51 -300 188 -300 206 0 5 7 9 15 9 41 0 165 86 165 115 0 6 -39
28 -87 48 -133 57 -133 57 -79 107 54 50 92 109 73 115 -6 2 -34 7 -62 10 -27
4 -74 16 -104 27 l-54 21 29 21 c53 37 104 100 123 151 10 28 17 53 15 56 -2
3 -29 2 -61 -3 -65 -11 -131 -5 -169 15 -14 7 -52 40 -86 73 l-60 59 65 7 c36
3 75 12 88 19 l23 12 -34 26 c-19 14 -84 71 -143 126 -60 55 -141 124 -180
153 -40 30 -73 55 -74 56 -2 1 19 2 45 2 56 0 122 12 122 23 0 26 -255 187
-345 218 l-50 17 78 7 c43 4 83 11 89 17 29 29 -230 169 -372 201 -47 11 -76
20 -65 20 34 2 127 50 123 63 -5 16 -167 71 -270 92 -44 9 -127 16 -193 16
l-115 0 62 53 c77 65 83 82 31 91 -113 18 -314 -8 -402 -54 -48 -24 -50 -20
-17 23 36 47 66 117 66 155 0 30 -2 32 -27 26 -54 -13 -169 -65 -250 -113 -46
-27 -83 -48 -83 -48 0 1 7 24 15 51 17 56 20 166 5 166 -6 0 -61 -49 -122
-110 -62 -60 -115 -110 -119 -110 -3 0 -14 39 -23 87 -10 47 -29 117 -43 155
-25 67 -27 69 -57 66 l-31 -3 -3 -134 -3 -133 -40 45 c-22 25 -68 68 -103 96
-68 54 -216 131 -252 131 -20 0 -22 -3 -14 -29z m250 -190 c56 -41 116 -107
148 -163 l30 -51 5 39 c4 21 9 78 12 126 4 49 10 90 15 93 12 7 39 -102 52
-208 l11 -97 32 47 c33 50 163 178 172 170 2 -3 -12 -40 -32 -84 -39 -83 -67
-153 -60 -153 2 0 36 24 75 54 96 72 299 170 316 153 3 -3 -15 -36 -40 -75
-77 -120 -110 -196 -68 -159 34 30 178 96 257 117 44 11 111 23 149 27 l69 6
-81 -78 c-45 -43 -82 -81 -82 -85 0 -4 24 -3 53 2 96 17 314 14 425 -6 56 -11
102 -23 102 -28 0 -4 -6 -8 -14 -8 -17 0 -141 -65 -174 -90 -22 -18 -20 -18
80 -19 148 -1 243 -20 356 -74 l67 -31 -75 -8 c-41 -4 -97 -16 -125 -25 l-50
-17 77 -18 c43 -9 110 -34 150 -54 83 -41 228 -125 228 -131 0 -3 -29 -1 -65
2 -36 4 -90 4 -121 0 l-56 -7 74 -42 c97 -55 190 -125 285 -217 43 -41 98 -91
122 -111 l45 -38 -30 1 c-24 0 -123 24 -224 54 -18 6 -9 -7 35 -46 33 -30 111
-107 173 -171 119 -123 160 -148 241 -148 l36 -1 -32 -29 c-33 -30 -87 -50
-135 -50 -38 0 -35 -11 11 -53 52 -47 87 -64 173 -86 l70 -18 -34 -26 c-36
-28 -108 -57 -139 -57 -11 0 -19 -4 -19 -8 0 -13 185 -121 219 -128 17 -4 31
-10 31 -14 0 -15 -83 -41 -146 -47 l-63 -6 51 -46 c105 -94 204 -174 252 -201
44 -25 46 -29 26 -35 -12 -4 -72 -10 -133 -14 l-110 -6 70 -39 c66 -36 122
-76 257 -186 l56 -45 -38 -7 c-55 -10 -202 -9 -242 1 -33 9 -31 7 35 -52 90
-80 175 -166 175 -178 0 -5 -17 0 -37 10 -43 21 -83 35 -83 28 0 -3 9 -26 19
-51 32 -73 43 -152 31 -221 -16 -92 -19 -94 -44 -39 -22 47 -117 148 -163 173
l-22 11 18 -43 c46 -108 53 -260 16 -377 l-18 -55 -12 36 c-22 61 -55 118 -92
159 -19 22 -39 40 -43 40 -4 0 -3 -21 1 -47 19 -117 4 -245 -39 -330 l-19 -35
-12 45 c-14 47 -64 117 -84 117 -30 0 -89 -208 -80 -280 6 -45 1 -48 -54 -25
-49 20 -71 41 -96 90 l-20 40 -19 -65 c-19 -66 -21 -176 -4 -212 7 -15 3 -18
-22 -18 -67 0 -122 38 -153 105 l-18 39 -11 -29 c-6 -16 -18 -55 -27 -87 -15
-53 -15 -61 0 -98 l15 -40 -56 0 c-96 0 -186 31 -251 86 -17 14 -31 21 -31 14
0 -38 27 -104 56 -138 l33 -39 -78 -7 c-81 -7 -138 2 -194 31 -28 14 -29 14
-22 -9 12 -37 32 -73 61 -107 l26 -31 -49 0 c-52 0 -132 33 -171 70 -13 12
-26 20 -29 16 -13 -13 10 -98 35 -127 l26 -32 -52 5 c-28 3 -74 17 -102 31
l-50 26 0 -28 c0 -15 -9 -36 -19 -45 -25 -23 -91 -31 -130 -18 -30 11 -31 10
-31 -19 0 -39 34 -52 118 -46 l63 5 -22 -24 -23 -25 110 7 c61 4 136 4 168 0
l58 -8 -32 -33 c-37 -38 -124 -87 -188 -106 -62 -18 -37 -26 113 -34 153 -8
224 -28 296 -81 l52 -38 -39 -18 c-25 -11 -64 -18 -111 -18 -40 0 -73 -3 -73
-8 0 -4 19 -19 43 -33 23 -14 80 -49 125 -77 83 -51 166 -82 216 -82 39 0 32
-17 -21 -50 -54 -35 -102 -50 -155 -50 -21 0 -38 -3 -38 -8 0 -4 27 -18 60
-30 90 -35 162 -106 210 -207 50 -101 50 -112 5 -121 -56 -10 -117 4 -206 49
-46 23 -88 43 -94 46 -5 2 25 -35 68 -83 69 -77 77 -91 77 -126 0 -55 -18 -52
-72 13 -78 94 -92 98 -65 20 23 -70 19 -138 -13 -233 -13 -36 -24 -66 -25 -68
-11 -13 -140 91 -177 142 -24 32 -29 36 -24 16 4 -14 9 -77 13 -140 7 -156
-10 -202 -112 -306 -41 -41 -78 -74 -84 -74 -7 0 -8 34 -4 98 3 60 1 125 -7
171 l-12 75 -24 -93 c-13 -51 -34 -116 -47 -144 -21 -46 -131 -196 -154 -210
-5 -3 -50 21 -101 53 -126 79 -304 166 -378 185 -47 12 -72 13 -105 6 -79 -18
-160 -50 -265 -105 -81 -42 -106 -51 -114 -41 -12 15 -59 147 -61 172 -1 10
-5 -4 -8 -30 -4 -27 -3 -82 2 -123 12 -105 2 -114 -71 -68 -112 69 -167 155
-180 281 l-8 78 -23 -45 c-16 -29 -26 -69 -29 -112 -2 -37 -8 -66 -12 -63 -12
7 -103 167 -116 204 -18 50 -17 86 5 171 11 41 19 75 18 77 -2 1 -18 -13 -37
-30 -37 -35 -101 -77 -116 -77 -5 0 -30 20 -56 45 -53 50 -66 91 -50 155 12
50 0 52 -48 10 -19 -16 -39 -29 -44 -30 -4 0 -6 26 -4 58 4 45 13 70 46 122
22 35 39 66 38 68 -2 2 -21 -5 -43 -16 -47 -24 -100 -38 -176 -46 l-58 -6 22
42 c32 64 85 114 174 166 l80 47 -68 12 c-68 12 -108 28 -204 82 l-51 29 46
18 c30 11 90 20 167 24 94 5 129 11 160 28 22 12 38 22 35 22 -3 1 -23 3 -45
6 -59 7 -127 31 -165 59 -31 23 -32 25 -11 25 64 0 321 80 321 100 0 4 -24 10
-54 13 -99 10 -181 74 -174 136 3 20 16 28 78 52 95 35 152 36 222 4 62 -29
104 -31 156 -9 l37 16 -58 14 c-55 13 -117 46 -117 62 0 4 17 8 38 9 45 1 152
40 152 55 0 7 -20 8 -60 4 -83 -10 -130 6 -183 59 l-44 44 -12 -37 c-10 -34
-52 -92 -66 -92 -3 0 -3 11 1 24 9 36 -14 103 -43 126 l-26 20 -23 -40 c-27
-48 -37 -58 -89 -93 -53 -36 -68 -36 -54 1 11 27 16 168 6 178 -3 3 -25 -14
-49 -38 -49 -49 -117 -86 -175 -95 l-38 -6 26 29 c23 25 59 84 59 97 0 3 -20
2 -44 0 -88 -10 -224 81 -284 191 l-17 31 -3 -45 c-3 -41 11 -140 25 -178 11
-28 -75 29 -128 85 -53 56 -104 155 -115 222 -4 23 -10 41 -15 41 -11 0 -10 9
-18 -160 l-6 -145 -60 60 c-72 71 -102 130 -118 231 -6 41 -15 74 -19 74 -22
0 -58 -121 -58 -197 0 -29 -4 -53 -9 -53 -17 0 -101 104 -127 156 -14 29 -28
77 -31 108 -3 31 -9 56 -13 56 -14 0 -42 -91 -53 -170 -3 -22 -6 -20 -26 23
-12 26 -25 70 -28 98 -3 27 -9 46 -14 42 -4 -4 -17 -39 -27 -78 l-20 -70 -23
50 c-20 43 -23 66 -23 158 0 59 -2 107 -3 107 -2 0 -47 -39 -99 -86 l-95 -86
7 73 c3 41 17 110 29 154 13 44 26 94 30 112 l6 32 -32 -30 c-59 -55 -186
-109 -258 -109 l-34 0 39 43 c65 70 152 182 189 244 38 64 44 84 18 61 -39
-35 -195 -98 -240 -98 -8 0 15 27 51 61 69 64 116 128 164 224 54 108 53 114
-14 63 -62 -48 -141 -91 -186 -102 -26 -6 -25 -3 26 68 82 115 161 291 191
425 l6 29 -43 -15 c-24 -8 -77 -17 -118 -19 l-75 -5 46 25 c57 31 121 106 154
179 21 49 75 203 75 216 0 3 -17 -11 -37 -31 -21 -20 -67 -51 -103 -67 -68
-33 -90 -38 -90 -21 0 6 4 10 9 10 12 0 85 110 151 230 66 118 117 195 187
283 30 37 51 67 48 67 -3 0 -65 -30 -137 -66 l-132 -66 45 53 c25 30 81 104
124 164 44 61 111 143 149 183 38 39 65 72 61 72 -4 0 -44 -9 -89 -19 -118
-27 -152 -33 -141 -22 96 91 259 208 370 266 l90 46 -103 -3 c-123 -4 -122 -3
43 77 69 34 154 65 225 84 63 16 108 32 100 35 -33 12 -149 26 -219 26 -46 0
-71 4 -65 9 5 5 63 39 129 74 132 72 279 134 395 168 82 24 78 37 -10 39 -77
2 -245 40 -176 40 10 0 101 27 201 60 101 34 214 67 252 75 89 19 246 19 308
0 27 -8 51 -13 53 -11 2 2 -18 20 -45 41 -41 31 -95 60 -213 112 -20 10 -3 12
90 12 127 1 284 -26 423 -73 43 -14 80 -26 83 -26 13 0 -105 127 -170 183
l-70 60 63 -6 c138 -15 262 -62 372 -143 l62 -46 -8 38 c-11 61 -58 155 -108
217 l-47 57 37 0 c52 0 131 -23 209 -59 75 -35 124 -71 207 -150 l59 -56 -7
35 c-10 52 -45 160 -66 202 -11 21 -19 40 -19 43 0 8 105 -51 150 -84z m-2852
-4423 c-3 -7 -21 -16 -41 -21 -22 -6 -39 -16 -42 -28 -9 -26 -130 -147 -183
-181 -23 -15 -50 -45 -61 -67 -12 -22 -26 -43 -31 -46 -16 -10 18 68 35 81 9
6 13 19 9 27 -15 41 147 216 201 217 11 0 29 7 39 15 24 18 79 20 74 3z m6067
-100 c23 -10 36 -38 17 -38 -13 0 -52 30 -52 41 0 12 4 11 35 -3z m150 -90
c74 -78 130 -177 121 -219 -4 -21 -2 -29 8 -29 8 0 21 -18 30 -40 24 -60 19
-81 -7 -35 -37 64 -77 119 -92 128 -8 4 -48 50 -90 101 -57 72 -75 101 -75
125 0 51 35 41 105 -31z m-4528 -2 c48 -23 143 -99 143 -116 0 -4 -50 -22
-110 -41 -88 -27 -107 -36 -95 -45 8 -6 15 -16 15 -22 0 -6 17 -24 37 -41 36
-30 36 -31 13 -31 -63 -1 -166 -74 -201 -142 -11 -21 -18 -38 -17 -39 2 0 19
-3 38 -6 46 -6 119 -39 147 -65 20 -19 21 -24 9 -37 -34 -39 -86 -162 -86
-204 0 -59 -10 -65 -31 -17 -10 22 -20 40 -22 40 -2 0 -5 -31 -5 -68 -2 -85
-19 -128 -71 -175 -39 -35 -91 -67 -110 -67 -5 0 -9 30 -8 68 1 70 -14 111
-51 145 -19 17 -19 17 -26 -41 -8 -74 -46 -136 -117 -192 -44 -34 -108 -70
-126 -70 -3 0 7 14 21 31 34 40 51 75 60 117 l6 34 -37 -32 c-60 -53 -117 -74
-203 -74 -57 0 -88 6 -128 24 l-53 23 53 30 c77 43 174 123 214 175 18 25 34
49 34 53 0 5 -22 -3 -48 -16 -54 -27 -152 -55 -192 -55 -56 0 -129 30 -177 75
-47 43 -48 44 -27 59 12 8 57 46 101 84 44 38 99 80 122 92 22 13 41 27 41 31
0 3 -40 14 -89 24 -69 13 -97 24 -123 46 l-33 29 47 43 c51 48 157 107 245
138 126 43 301 68 368 51 22 -6 61 -13 87 -17 59 -8 58 8 -5 46 -60 38 -135
53 -218 45 -58 -6 -76 -4 -116 14 -57 25 -49 34 48 49 130 22 268 8 353 -35
16 -8 31 -12 34 -10 2 3 -18 28 -44 57 l-49 52 80 -6 c67 -5 92 -12 165 -49
47 -24 88 -44 92 -46 11 -5 -9 57 -27 84 -14 22 -14 24 2 24 10 0 41 -11 70
-24z m-2037 -873 c39 -126 99 -275 132 -325 35 -56 28 -57 153 33 44 31 108
74 143 94 61 35 63 36 85 18 23 -18 232 -241 336 -357 100 -112 191 -206 200
-206 5 0 47 18 92 40 46 22 89 40 95 40 7 0 48 -37 91 -82 210 -222 406 -378
626 -500 51 -27 117 -69 147 -92 30 -22 60 -45 68 -50 11 -6 51 29 156 138
l142 147 65 -24 c35 -13 108 -43 161 -66 121 -51 128 -52 121 -6 -3 21 -1 41
7 50 27 32 165 129 307 214 138 84 149 89 166 74 16 -15 19 -15 34 0 13 13 14
19 4 31 -10 12 -1 21 61 56 82 46 91 46 213 5 39 -13 72 -22 73 -20 7 7 -74
43 -143 64 l-70 22 -90 -45 c-215 -107 -561 -332 -594 -386 l-16 -28 -125 54
c-180 76 -166 76 -243 7 -36 -32 -97 -95 -137 -141 -43 -49 -76 -79 -83 -75
-30 17 -77 56 -77 63 0 12 107 149 159 204 25 26 67 65 93 86 44 36 50 37 87
29 47 -10 233 -83 272 -106 26 -15 28 -15 95 39 216 171 375 274 519 333 118
49 156 46 300 -25 156 -77 301 -184 437 -323 117 -120 118 -120 145 -106 15 8
56 42 90 76 l63 63 83 -74 c75 -66 261 -199 330 -235 25 -13 30 -12 84 24 32
21 117 82 190 136 72 54 142 104 156 110 20 9 41 6 118 -19 113 -35 179 -49
163 -32 -24 24 -264 120 -286 115 -27 -7 -107 -63 -278 -193 l-122 -93 -67 36
c-51 28 -280 177 -365 239 -8 6 -37 -10 -86 -48 -40 -31 -78 -55 -83 -53 -6 2
-21 17 -34 33 l-23 31 90 67 c50 37 97 69 106 73 8 3 72 -32 152 -85 75 -49
164 -104 198 -122 l60 -34 55 36 c161 104 416 239 470 250 15 3 260 -137 318
-181 l24 -18 -28 -37 c-24 -32 -25 -36 -9 -36 34 0 88 41 195 149 153 154 255
308 304 461 32 98 27 96 103 54 37 -20 94 -59 127 -87 62 -51 180 -176 187
-198 8 -25 25 1 32 48 3 27 19 70 35 96 l28 48 19 -98 c21 -106 26 -341 11
-483 -5 -52 -5 -70 2 -59 15 23 49 243 57 364 7 113 -9 303 -31 366 -20 54
-18 86 5 129 l18 35 12 -30 c32 -81 43 -117 61 -200 l19 -90 -5 95 c-4 91 -26
192 -61 280 -9 22 -19 40 -23 40 -4 0 -47 -81 -96 -181 -49 -99 -93 -183 -97
-185 -5 -3 -28 10 -51 29 -63 52 -177 123 -259 162 -78 38 -97 42 -102 23 -23
-75 -94 -251 -118 -292 -39 -66 -119 -174 -153 -206 l-26 -24 27 59 c15 33 53
112 85 175 31 63 73 165 94 225 54 159 56 165 69 165 30 0 327 -163 379 -208
9 -8 19 -13 21 -11 3 4 105 181 173 301 24 43 48 80 53 83 10 6 66 -98 100
-187 63 -163 88 -424 55 -573 -61 -275 -201 -579 -373 -810 -90 -121 -305
-336 -422 -422 -135 -99 -136 -98 -29 9 200 201 344 439 408 673 27 96 26 114
-2 49 -106 -247 -378 -574 -647 -781 -480 -368 -1048 -582 -1785 -672 -450
-55 -804 -54 -1207 3 -559 80 -1042 260 -1473 549 -153 103 -440 338 -516 424
-23 26 -24 31 -11 51 7 11 11 26 7 32 -8 13 -48 13 -62 -1 -7 -7 -24 6 -58 46
-26 30 -50 54 -52 51 -2 -2 29 -56 69 -121 90 -144 234 -299 380 -410 110 -84
140 -109 96 -82 -170 104 -346 238 -482 367 -219 207 -355 369 -510 608 -36
56 -68 102 -69 102 -2 0 4 -30 13 -67 54 -216 230 -503 435 -708 92 -92 285
-257 385 -328 l25 -18 -25 12 c-68 32 -318 207 -415 291 -294 254 -477 531
-616 935 -123 353 -129 704 -19 949 29 64 90 164 101 164 3 0 16 -35 29 -77z
m2023 1 c8 -9 -50 -104 -85 -139 -30 -30 -30 -30 -24 -5 3 14 6 53 6 88 l0 62
48 0 c27 0 51 -3 55 -6z m3282 -81 c46 -15 147 -100 156 -130 3 -10 15 -9 53
2 271 82 438 -190 288 -469 -25 -45 -104 -126 -123 -126 -5 0 11 30 36 68 55
82 85 165 85 232 0 165 -145 272 -284 209 -21 -10 -24 -19 -28 -83 -7 -109
-39 -178 -117 -257 -54 -54 -132 -109 -155 -109 -2 0 21 26 53 58 37 36 70 83
91 127 30 61 35 82 38 167 4 91 3 100 -22 142 -66 113 -190 133 -343 56 -104
-52 -266 -231 -369 -407 -45 -77 -54 -69 -23 19 65 186 216 383 357 465 90 53
215 68 307 36z m-3112 -191 c113 -53 223 -173 302 -331 33 -67 75 -202 75
-240 0 -9 -29 36 -63 100 -162 300 -309 428 -482 417 -82 -5 -138 -41 -174
-112 -68 -133 -21 -308 125 -458 50 -52 46 -60 -15 -28 -68 34 -148 116 -183
188 -29 58 -33 79 -36 159 -4 105 -14 121 -81 130 -93 13 -173 -36 -208 -125
-19 -49 -24 -163 -10 -216 7 -27 7 -28 -8 -16 -64 53 -81 204 -33 296 70 133
212 189 329 129 l31 -17 45 51 c98 112 244 140 386 73z"/>
<path d="M6445 8286 c-70 -22 -122 -54 -159 -97 -20 -24 -36 -46 -36 -51 0
-11 14 -10 26 1 34 32 182 53 293 40 128 -14 181 -32 354 -117 16 -8 -16 43
-58 93 -99 116 -285 174 -420 131z"/>
<path d="M3381 8039 c-135 -23 -270 -128 -335 -261 -19 -40 -38 -91 -42 -113
l-6 -40 51 56 c95 106 255 209 385 248 73 22 171 29 246 17 l45 -7 -35 30
c-68 59 -200 88 -309 70z"/>
<path d="M6428 7934 c-78 -18 -150 -56 -230 -120 -139 -112 -241 -287 -284
-486 -20 -98 -20 -284 0 -372 33 -141 132 -272 246 -328 77 -37 217 -68 336
-75 86 -5 111 -3 170 16 112 34 199 114 263 240 62 120 80 333 41 487 -81 320
-357 508 -612 418 -52 -18 -48 -8 5 15 197 84 450 19 608 -157 186 -208 241
-533 127 -756 -28 -55 -112 -142 -183 -189 l-60 -39 39 7 c153 27 300 145 360
288 26 63 46 181 46 272 0 83 1 85 24 85 28 0 82 35 107 70 18 25 50 131 42
140 -2 2 -15 -8 -28 -22 -13 -14 -40 -32 -60 -38 -36 -12 -100 -7 -109 9 -3 4
15 29 39 54 56 59 77 125 73 229 l-3 73 -22 -45 c-36 -74 -72 -105 -138 -120
l-35 -8 30 38 c17 21 37 55 46 76 21 50 20 148 -2 203 l-17 44 -12 -45 c-6
-25 -25 -64 -42 -87 -31 -42 -88 -91 -106 -91 -5 0 -38 27 -73 59 -79 72 -194
133 -291 155 -86 19 -217 19 -295 0z m-7 -359 c68 -36 93 -149 47 -223 -24
-39 -86 -71 -138 -72 -52 0 -120 38 -142 80 -76 145 83 292 233 215z m-290
-284 c20 -16 22 -23 14 -47 -18 -51 -95 -42 -95 12 0 25 24 54 45 54 7 0 23
-9 36 -19z m628 -368 c28 -32 41 -58 41 -77 0 -36 -25 -66 -55 -66 -27 0 -100
51 -115 81 -11 19 -7 27 31 65 24 24 46 44 50 44 4 0 26 -21 48 -47z"/>
<path d="M3588 7680 c-118 -21 -230 -67 -328 -133 -67 -45 -170 -156 -215
-231 -39 -64 -41 -67 -74 -62 -77 12 -189 88 -249 171 l-21 30 0 -80 c-1 -119
45 -201 148 -267 l45 -28 -68 0 c-97 0 -143 17 -200 72 -28 27 -52 48 -54 48
-13 0 14 -115 39 -167 36 -75 91 -125 168 -152 l56 -19 -40 -17 c-59 -26 -144
-23 -205 7 -28 14 -50 22 -50 19 0 -3 14 -29 30 -58 66 -116 190 -162 299
-113 24 11 45 20 46 20 2 0 7 -21 11 -47 10 -73 60 -202 100 -261 82 -118 218
-212 349 -240 51 -11 155 -23 155 -18 0 1 -39 22 -87 46 -164 83 -292 244
-334 420 -20 83 -15 259 10 353 71 266 278 469 534 524 86 18 244 13 297 -9
33 -14 30 -14 -70 -10 -190 8 -312 -38 -437 -164 -131 -132 -190 -297 -180
-499 11 -202 61 -319 192 -451 130 -131 271 -188 462 -187 115 0 215 24 320
75 144 70 272 232 314 398 20 80 17 287 -5 375 -79 307 -346 567 -658 640 -80
18 -239 27 -300 15z m463 -336 c53 -27 109 -113 109 -169 0 -29 -24 -88 -47
-115 -92 -110 -259 -86 -320 46 -32 70 -26 125 20 187 54 70 157 93 238 51z
m401 -656 c-7 -7 -12 -8 -12 -2 0 14 12 26 19 19 2 -3 -1 -11 -7 -17z m-812
-38 c0 -5 14 -22 30 -37 17 -14 30 -33 30 -41 0 -22 -94 -110 -125 -118 -31
-8 -51 8 -58 43 -7 38 6 65 56 117 42 44 67 57 67 36z m800 -6 c0 -21 -18 -54
-30 -54 -14 0 -12 44 2 58 17 17 28 15 28 -4z m-156 -10 c9 -8 19 -27 22 -40
9 -34 -29 -74 -68 -74 -39 0 -82 42 -73 73 15 51 85 75 119 41z m106 -76 c0
-13 -39 -58 -51 -58 -11 0 0 31 19 53 17 20 32 22 32 5z m-60 -71 c0 -2 -10
-12 -22 -23 l-23 -19 19 23 c18 21 26 27 26 19z"/>
<path d="M5195 7012 c-137 -47 -224 -119 -404 -337 -165 -199 -272 -295 -401
-360 -82 -41 -116 -71 -139 -120 -39 -84 -21 -178 43 -220 13 -9 63 -32 111
-50 130 -51 195 -104 366 -298 226 -255 315 -334 451 -403 112 -56 206 -77
318 -71 123 7 211 35 305 98 160 107 236 245 305 552 55 241 76 287 181 396
80 82 108 135 109 199 0 103 -53 153 -196 183 -126 27 -206 68 -314 164 -203
179 -232 204 -288 233 -131 70 -304 83 -447 34z m341 -50 c83 -26 150 -73 274
-193 129 -124 216 -178 370 -226 63 -19 124 -41 134 -49 49 -34 68 -100 47
-158 -6 -13 -42 -60 -81 -103 -91 -100 -134 -188 -195 -402 -60 -211 -88 -281
-147 -358 -59 -78 -87 -104 -158 -142 -81 -43 -153 -61 -244 -61 -93 0 -160
16 -252 59 -118 55 -202 121 -417 329 -228 220 -302 279 -400 321 -118 49
-156 94 -143 166 10 52 53 94 150 148 159 89 258 179 428 392 52 66 118 143
145 170 119 120 313 163 489 107z"/>
<path d="M5667 6793 c-14 -13 -6 -60 13 -81 23 -24 62 -37 85 -28 27 10 18 62
-16 90 -29 25 -68 34 -82 19z"/>
<path d="M5096 6713 c-49 -49 -46 -105 8 -111 36 -4 86 45 86 85 0 57 -49 71
-94 26z"/>
<path d="M6250 6445 c21 -26 -4 -63 -57 -87 -55 -24 -108 -21 -248 17 -294 78
-435 57 -800 -125 -252 -124 -328 -151 -433 -151 -85 0 -130 13 -189 53 l-43
29 0 -29 c0 -40 28 -72 92 -106 77 -42 126 -84 283 -242 150 -151 222 -210
349 -286 192 -116 402 -136 562 -55 107 54 196 193 249 387 79 289 103 340
198 422 85 74 109 135 69 171 -25 23 -50 24 -32 2z m-815 -487 c80 -26 134
-59 189 -113 63 -63 75 -112 50 -198 -5 -16 1 -15 46 8 97 49 166 128 202 230
l18 50 -6 -65 c-12 -131 -70 -247 -151 -303 -78 -54 -132 -71 -228 -71 -134
-1 -237 35 -371 129 -69 49 -224 209 -224 231 0 34 157 113 255 127 52 8 158
-4 220 -25z"/>
<path d="M6279 4262 c12 -17 38 -44 57 -61 46 -37 133 -85 142 -77 16 16 -139
143 -197 161 l-24 7 22 -30z"/>
<path d="M4238 4127 c-46 -41 -77 -100 -85 -166 -6 -53 9 -73 22 -28 4 12 31
65 61 119 30 53 54 99 54 102 0 13 -16 4 -52 -27z"/>
<path d="M6200 3968 c0 -7 16 -38 35 -68 19 -30 48 -80 64 -110 25 -46 30 -51
31 -29 0 46 -30 129 -62 165 -37 42 -68 61 -68 42z"/>
<path d="M3065 4453 c-12 -2 -27 -13 -34 -25 -11 -18 -11 -20 2 -15 8 3 42 11
76 18 33 6 58 15 55 20 -5 9 -60 10 -99 2z"/>
<path d="M3065 4323 c-11 -2 -31 -12 -45 -23 -20 -15 -23 -21 -12 -32 10 -10
21 -10 59 0 64 17 114 42 107 53 -5 9 -70 10 -109 2z"/>
<path d="M1730 3717 c-39 -89 -52 -160 -56 -302 -2 -98 0 -128 6 -100 5 22 9
68 9 102 1 71 34 255 56 307 22 51 8 45 -15 -7z"/>
<path d="M2248 3595 c-92 -47 -147 -82 -185 -118 l-33 -31 -53 59 -54 59 -28
-44 c-42 -66 -93 -180 -112 -252 -13 -46 -17 -101 -17 -203 0 -145 18 -240 73
-395 26 -74 26 -45 -1 76 -30 134 -33 400 -5 484 22 66 96 220 106 220 3 -1
23 -23 44 -50 21 -28 44 -50 50 -50 7 0 23 19 37 41 31 50 62 74 167 128 l83
43 32 -27 c48 -41 142 -148 212 -244 81 -111 170 -229 199 -265 23 -29 23 -29
75 -15 57 14 64 32 14 37 -36 4 -59 29 -176 191 -39 54 -91 125 -115 157 -57
76 -214 234 -232 234 -8 -1 -44 -16 -81 -35z"/>
<path d="M1927 3353 c-11 -10 -8 -51 4 -58 5 -4 21 -4 35 -1 19 5 24 13 24 36
0 26 -4 30 -28 30 -16 0 -32 -3 -35 -7z"/>
<path d="M2390 3320 c0 -5 5 -10 10 -10 6 0 10 5 10 10 0 6 -4 10 -10 10 -5 0
-10 -4 -10 -10z"/>
<path d="M1910 3240 c0 -5 5 -10 10 -10 6 0 10 5 10 10 0 6 -4 10 -10 10 -5 0
-10 -4 -10 -10z"/>
<path d="M8205 3240 c3 -5 8 -10 11 -10 2 0 4 5 4 10 0 6 -5 10 -11 10 -5 0
-7 -4 -4 -10z"/>
<path d="M2170 3160 c0 -13 7 -20 20 -20 13 0 20 7 20 20 0 13 -7 20 -20 20
-13 0 -20 -7 -20 -20z"/>
<path d="M1840 3119 c0 -5 5 -7 10 -4 6 3 10 8 10 11 0 2 -4 4 -10 4 -5 0 -10
-5 -10 -11z"/>
<path d="M2967 3083 c-58 -32 -56 -49 5 -45 51 4 67 -6 307 -190 133 -103 288
-205 296 -196 5 4 -99 97 -291 259 -115 97 -249 199 -261 199 -5 0 -29 -12
-56 -27z"/>
<path d="M8360 3070 c0 -5 7 -10 15 -10 8 0 15 5 15 10 0 6 -7 10 -15 10 -8 0
-15 -4 -15 -10z"/>
<path d="M2187 3026 c-10 -26 4 -47 27 -44 15 2 21 10 21 28 0 29 -38 41 -48
16z"/>
<path d="M5495 2960 c-3 -5 1 -10 9 -10 9 0 16 5 16 10 0 6 -4 10 -9 10 -6 0
-13 -4 -16 -10z"/>
<path d="M1915 2950 c-8 -13 4 -32 16 -25 12 8 12 35 0 35 -6 0 -13 -4 -16
-10z"/>
<path d="M5163 2934 c-8 -21 13 -42 28 -27 13 13 5 43 -11 43 -6 0 -13 -7 -17
-16z"/>
<path d="M2070 2930 c0 -5 7 -10 15 -10 8 0 15 5 15 10 0 6 -7 10 -15 10 -8 0
-15 -4 -15 -10z"/>
<path d="M5490 2910 c0 -5 7 -10 15 -10 8 0 15 5 15 10 0 6 -7 10 -15 10 -8 0
-15 -4 -15 -10z"/>
<path d="M8183 2898 c2 -7 7 -13 12 -13 5 0 10 6 13 13 2 6 -4 12 -13 12 -9 0
-15 -6 -12 -12z"/>
<path d="M2254 2846 c-10 -26 4 -48 28 -44 17 2 23 10 23 28 0 18 -6 26 -23
28 -13 2 -25 -3 -28 -12z"/>
<path d="M5665 2810 c4 -6 11 -8 16 -5 14 9 11 15 -7 15 -8 0 -12 -5 -9 -10z"/>
<path d="M8325 2800 c-3 -6 1 -13 10 -16 19 -8 30 0 20 15 -8 14 -22 14 -30 1z"/>
<path d="M2017 2784 c-4 -4 -7 -16 -7 -26 0 -14 6 -19 23 -16 14 2 22 10 22
23 0 20 -25 32 -38 19z"/>
<path d="M2975 2770 c-4 -7 -3 -16 3 -22 14 -14 45 -2 40 15 -6 16 -34 21 -43
7z"/>
<path d="M8120 2710 c0 -23 25 -27 33 -6 7 16 -1 26 -20 26 -7 0 -13 -9 -13
-20z"/>
<path d="M2590 2700 c0 -5 5 -10 10 -10 6 0 10 5 10 10 0 6 -4 10 -10 10 -5 0
-10 -4 -10 -10z"/>
<path d="M2137 2644 c-14 -14 -7 -35 11 -32 9 2 17 10 17 17 0 16 -18 25 -28
15z"/>
<path d="M5757 2573 c-12 -11 -8 -23 8 -23 8 0 15 7 15 15 0 16 -12 20 -23 8z"/>
<path d="M3926 2464 c-4 -9 -4 -19 -1 -22 2 -3 7 3 11 12 4 9 4 19 1 22 -2 3
-7 -3 -11 -12z"/>
<path d="M7880 2400 c0 -5 7 -10 15 -10 8 0 15 5 15 10 0 6 -7 10 -15 10 -8 0
-15 -4 -15 -10z"/>
<path d="M2360 2360 c0 -5 5 -10 10 -10 6 0 10 5 10 10 0 6 -4 10 -10 10 -5 0
-10 -4 -10 -10z"/>
<path d="M7899 2294 c-16 -20 -1 -48 29 -52 27 -4 49 33 31 54 -15 19 -43 18
-60 -2z"/>
<path d="M3571 2287 c-14 -18 -5 -44 19 -50 26 -7 42 7 38 34 -4 28 -38 38
-57 16z"/>
<path d="M7770 2100 c0 -5 7 -10 15 -10 8 0 15 5 15 10 0 6 -7 10 -15 10 -8 0
-15 -4 -15 -10z"/>
<path d="M3850 2085 c0 -9 5 -15 10 -13 12 4 11 16 -1 24 -5 3 -9 -2 -9 -11z"/>
<path d="M2846 2083 c-12 -12 -6 -33 9 -33 8 0 15 6 15 14 0 17 -14 28 -24 19z"/>
<path d="M7645 2001 c-9 -16 3 -31 26 -31 14 0 19 6 17 17 -4 20 -33 29 -43
14z"/>
<path d="M3021 1920 c-14 -8 -7 -30 9 -30 11 0 21 28 12 34 -5 3 -14 1 -21 -4z"/>
<path d="M7450 1850 c0 -13 7 -20 20 -20 13 0 20 7 20 20 0 13 -7 20 -20 20
-13 0 -20 -7 -20 -20z"/>
<path d="M3540 1830 c0 -5 5 -10 10 -10 6 0 10 5 10 10 0 6 -4 10 -10 10 -5 0
-10 -4 -10 -10z"/>
<path d="M3195 1820 c-9 -15 4 -30 26 -30 12 0 19 7 19 20 0 21 -33 29 -45 10z"/>
<path d="M7460 1800 c0 -5 5 -10 10 -10 6 0 10 5 10 10 0 6 -4 10 -10 10 -5 0
-10 -4 -10 -10z"/>
<path d="M6930 5115 c0 -45 4 -65 13 -65 6 0 39 -13 72 -28 114 -54 193 -158
211 -277 l7 -49 18 23 c25 31 33 101 19 161 -16 66 -81 162 -141 206 -45 33
-167 94 -189 94 -6 0 -10 -27 -10 -65z"/>
<path d="M9470 4176 c-241 -72 -311 -152 -369 -420 -18 -84 -30 -111 -74 -178
l-52 -79 -9 42 c-7 29 -6 46 2 58 97 136 95 379 -4 472 l-23 21 -20 -41 c-65
-127 -65 -315 0 -431 20 -36 20 -39 5 -150 -9 -63 -16 -119 -16 -125 0 -5 21
26 47 70 122 211 111 200 260 270 204 97 274 173 326 355 32 110 37 154 17
156 -8 1 -49 -8 -90 -20z"/>
<path d="M654 4101 c10 -62 62 -186 105 -250 56 -82 150 -154 236 -181 22 -7
75 -26 117 -42 l77 -29 79 -107 c43 -59 91 -129 106 -155 32 -56 41 -56 28 -1
-6 22 -15 74 -22 116 l-13 78 38 82 c32 69 39 97 43 169 5 97 -9 163 -60 271
l-32 68 -23 -22 c-108 -102 -115 -375 -13 -518 15 -22 20 -41 18 -72 l-3 -43
-61 73 c-57 68 -64 81 -89 175 -39 144 -93 255 -151 306 -65 57 -166 92 -338
117 l-49 7 7 -42z m321 -131 c3 -5 2 -10 -4 -10 -5 0 -13 5 -16 10 -3 6 -2 10
4 10 5 0 13 -4 16 -10z"/>
<path d="M9396 3599 c-127 -14 -232 -64 -309 -144 -46 -47 -114 -174 -145
-270 -11 -34 -36 -87 -57 -120 -40 -62 -88 -171 -83 -187 4 -11 79 106 134
206 6 12 63 39 160 76 166 63 209 87 272 151 50 52 128 198 138 257 8 48 15
46 -110 31z"/>
<path d="M814 3504 c23 -129 91 -256 173 -321 55 -43 101 -64 257 -119 l109
-39 88 -175 c49 -96 87 -176 85 -177 -9 -9 -98 53 -122 85 -119 161 -235 250
-360 277 -85 19 -258 17 -352 -5 l-52 -12 17 -30 c30 -51 165 -181 225 -217
98 -57 130 -65 273 -65 72 -1 158 3 192 7 56 8 64 7 70 -10 7 -20 19 -31 113
-99 36 -26 77 -59 92 -73 33 -29 50 -21 21 12 -41 46 -113 159 -113 177 0 10
-27 79 -61 152 -34 73 -79 188 -100 255 -87 270 -226 388 -481 409 l-81 7 7
-39z"/>
<path d="M9298 3109 c-37 -5 -91 -18 -120 -29 -70 -26 -187 -121 -257 -208
-31 -38 -78 -88 -106 -110 -27 -21 -60 -50 -71 -63 -23 -26 -74 -105 -74 -114
0 -20 153 120 195 178 l20 27 75 -10 c41 -5 118 -10 172 -10 118 0 192 21 284
81 66 43 224 201 224 225 0 7 -17 15 -37 18 -54 9 -216 26 -228 25 -5 -1 -40
-5 -77 -10z"/>
<path d="M8900 2631 c-87 -28 -144 -74 -234 -188 l-57 -73 111 0 c93 0 124 4
188 26 85 28 215 110 275 172 l39 39 -34 13 c-39 15 -252 23 -288 11z"/>
<path d="M1175 2574 c-92 -21 -145 -38 -145 -45 0 -18 125 -151 183 -194 74
-56 103 -72 171 -92 59 -18 222 -20 304 -4 46 9 55 8 71 -8 26 -26 171 -123
171 -115 0 14 -92 114 -120 131 -16 9 -60 55 -97 101 -79 98 -140 150 -230
194 -60 29 -74 32 -177 34 -61 2 -120 1 -131 -2z"/>
<path d="M8565 2293 c-34 -17 -95 -73 -95 -85 0 -10 135 57 169 83 l24 19 -34
0 c-19 -1 -47 -8 -64 -17z"/>
</g>
</svg>
